<?xml version="1.0" encoding="UTF-8" standalone="no"?>
<!-- Created with Inkscape (http://www.inkscape.org/) -->

<svg
   width="48"
   height="48"
   viewBox="0 0 12.7 12.7"
   version="1.1"
   id="svg8632"
   inkscape:version="1.1 (c68e22c387, 2021-05-23)"
   sodipodi:docname="heart.svg"
   xmlns:inkscape="http://www.inkscape.org/namespaces/inkscape"
   xmlns:sodipodi="http://sodipodi.sourceforge.net/DTD/sodipodi-0.dtd"
   xmlns="http://www.w3.org/2000/svg"
   xmlns:svg="http://www.w3.org/2000/svg">
  <sodipodi:namedview
     id="namedview8634"
     pagecolor="#ffffff"
     bordercolor="#666666"
     borderopacity="1.0"
     inkscape:pageshadow="2"
     inkscape:pageopacity="0.0"
     inkscape:pagecheckerboard="0"
     inkscape:document-units="mm"
     showgrid="false"
     units="px"
     inkscape:zoom="12.795428"
     inkscape:cx="22.000046"
     inkscape:cy="23.680333"
     inkscape:window-width="2119"
     inkscape:window-height="1506"
     inkscape:window-x="153"
     inkscape:window-y="230"
     inkscape:window-maximized="0"
     inkscape:current-layer="layer1"
     inkscape:snap-object-midpoints="true"
     inkscape:snap-midpoints="true"
     inkscape:snap-intersection-paths="true"
     inkscape:snap-bbox="true"
     inkscape:snap-bbox-midpoints="true" />
  <defs
     id="defs8629">
    <inkscape:path-effect
       effect="spiro"
       id="path-effect10575"
       is_visible="true"
       lpeversion="1" />
    <inkscape:path-effect
       effect="spiro"
       id="path-effect9758"
       is_visible="true"
       lpeversion="1" />
  </defs>
  <g
     inkscape:label="Layer 1"
     inkscape:groupmode="layer"
     id="layer1">
    <path
       id="path9756"
       style="color:#000000;fill:#aa8800;stroke-width:1;-inkscape-stroke:none"
       d="M 3.6290634,0.31873401 C 3.2584523,0.32172676 2.8882814,0.3861586 2.5386906,0.51200387 1.8401775,0.76345366 1.2413639,1.2502516 0.8199325,1.855591 0.39885313,2.4604249 0.15358636,3.1766303 0.0757919,3.9045614 -0.07971028,5.3596123 0.42171538,6.8084616 1.1775334,8.0391927 2.3602175,9.9650094 4.2472557,11.540835 6.3683502,12.320877 8.4894417,11.540835 10.377677,9.9650094 11.560361,8.0391927 12.316179,6.8084616 12.817606,5.3596123 12.662103,3.9045614 12.584309,3.1766303 12.339042,2.4604249 11.917963,1.855591 11.496532,1.2502515 10.897717,0.76345366 10.199204,0.51200387 9.5000227,0.26031337 8.7184764,0.25395752 8.0153589,0.49443387 7.3122411,0.7349102 6.7882241,1.0703114 6.3896182,1.6974611 5.9910162,1.0703114 5.4256543,0.7349102 4.7225365,0.49443387 4.3709778,0.3741957 3.9996743,0.31574125 3.6290634,0.31873401 Z m 0.00206,0.26406657 c 0.3412231,-0.002622 0.6832571,0.051492 1.005627,0.16174722 C 5.2814905,0.96505815 6.0153193,1.5409608 6.38083,2.1160403 6.7463376,1.5409608 7.4548484,0.96505815 8.0995882,0.7445478 8.7443283,0.52403747 9.4681537,0.5292573 10.109284,0.7600508 c 0.641232,0.23082965 1.1995,0.6826608 1.591634,1.2459187 0.392487,0.5637638 0.623597,1.2380676 0.697115,1.9259806 C 12.545155,5.3085875 12.070054,6.7046998 11.335566,7.9007 10.18479,9.7745567 8.4341448,11.405244 6.3702777,12.16424 4.3064163,11.405244 2.5531011,9.7745567 1.4023259,7.9007 0.66783693,6.7046997 0.19273635,5.3085877 0.33985846,3.93195 0.41337614,3.2440371 0.64448671,2.5697332 1.0369735,2.0059694 1.4291082,1.4427114 1.9873758,0.99088045 2.6286076,0.76005075 2.9491731,0.644654 3.2899112,0.58542144 3.6311303,0.58280058 Z"
       sodipodi:nodetypes="ssssscssssscsssscssssscsssss" />
    <path
       style="fill:#d4aa00;stroke-width:0.0350109;fill-opacity:1"
       d="M 13.667669,2.1245897 C 11.049808,2.1415302 8.4696949,3.1131087 6.4487958,4.7687209 4.3438491,6.4571081 2.8009405,8.7941822 1.9625957,11.350998 0.84706685,14.665753 0.88447886,18.287172 1.7100587,21.66237 c 1.0677542,4.388877 3.3498972,8.387899 6.0839667,11.94661 1.2384676,1.623121 2.6040286,3.146263 4.0705666,4.566299 1.932223,1.90032 4.079169,3.583601 6.377523,5.019119 1.831842,1.137366 3.776784,2.09168 5.794127,2.8521 0.365758,-0.07377 0.70886,-0.260923 1.061731,-0.387193 3.991267,-1.642216 7.628575,-4.097705 10.751851,-7.06693 1.912977,-1.830819 3.694109,-3.805047 5.234423,-5.961563 2.739256,-3.773466 4.942407,-8.058519 5.696728,-12.698372 C 47.40097,16.197764 46.927699,12.222711 45.105786,8.8737008 43.496588,5.8808851 40.724271,3.4582044 37.423482,2.5434902 36.28522,2.22008 35.097618,2.0979022 33.916521,2.1465001 31.829664,2.1747896 29.772957,2.8563391 28.0493,4.02605 26.517592,5.0365518 25.153771,6.3506738 24.111666,7.842519 23.351373,6.7574656 22.419965,5.7942011 21.399286,4.9520453 19.659012,3.5530429 17.588225,2.4940162 15.351801,2.2207363 14.793738,2.1476579 14.230353,2.1177341 13.667669,2.1245897 Z"
       id="path12588"
       transform="scale(0.26458333)" />
  </g>
</svg>
