<?xml version="1.0" encoding="UTF-8" standalone="no"?>
<!-- Created with Inkscape (http://www.inkscape.org/) -->

<svg
   width="48"
   height="48"
   viewBox="0 0 12.7 12.7"
   version="1.1"
   id="svg14191"
   inkscape:version="1.1 (c68e22c387, 2021-05-23)"
   sodipodi:docname="heart_unselected.svg"
   xmlns:inkscape="http://www.inkscape.org/namespaces/inkscape"
   xmlns:sodipodi="http://sodipodi.sourceforge.net/DTD/sodipodi-0.dtd"
   xmlns="http://www.w3.org/2000/svg"
   xmlns:svg="http://www.w3.org/2000/svg">
  <sodipodi:namedview
     id="namedview14193"
     pagecolor="#ffffff"
     bordercolor="#666666"
     borderopacity="1.0"
     inkscape:pageshadow="2"
     inkscape:pageopacity="0.0"
     inkscape:pagecheckerboard="0"
     inkscape:document-units="mm"
     showgrid="false"
     units="px"
     inkscape:snap-bbox="true"
     inkscape:zoom="28.5625"
     inkscape:cx="32.140044"
     inkscape:cy="24"
     inkscape:window-width="3200"
     inkscape:window-height="1697"
     inkscape:window-x="0"
     inkscape:window-y="50"
     inkscape:window-maximized="1"
     inkscape:current-layer="layer1"
     inkscape:snap-global="false" />
  <defs
     id="defs14188" />
  <g
     inkscape:label="Layer 1"
     inkscape:groupmode="layer"
     id="layer1">
    <path
       style="fill:#e3dbdb;fill-opacity:1;stroke-width:0.0092633"
       d="M 3.5970163,0.57756757 C 2.9043739,0.58204977 2.221719,0.83911327 1.6870228,1.2771606 1.130089,1.7238797 0.72186113,2.3422305 0.50004903,3.0187214 c -0.2951503,0.8770289 -0.2852517,1.835196 -0.0668171,2.7282171 0.28251,1.1612237 0.88632697,2.2192982 1.60971617,3.1608738 0.3276779,0.4294508 0.6889826,0.8324488 1.0770041,1.2081667 0.511234,0.502793 1.0792801,0.948161 1.6873862,1.327975 0.4846749,0.300928 0.9992741,0.553424 1.5330294,0.754619 0.096774,-0.01952 0.1875526,-0.06904 0.2809164,-0.102445 C 7.6773069,11.661625 8.6396783,11.011943 9.4660443,10.226336 9.9721863,9.7419311 10.443444,9.2195836 10.850985,8.6490054 11.575747,7.6506092 12.158664,6.5168556 12.358245,5.2892279 12.522285,4.3010948 12.397065,3.2493621 11.915018,2.3632698 11.489251,1.5714207 10.755742,0.93041977 9.8824083,0.68840167 9.5812433,0.60283277 9.2670233,0.57050657 8.9545253,0.58336467 8.4023774,0.59084967 7.858207,0.77117627 7.4021561,1.0806622 6.9968917,1.3480241 6.6360474,1.6957189 6.3603238,2.0904363 6.1591629,1.8033493 5.9127279,1.5484855 5.6426732,1.3256651 5.1822258,0.95551244 4.63433,0.67531167 4.0426095,0.60300637 3.8949554,0.58367107 3.7458931,0.57575367 3.5970163,0.57756757 Z"
       id="path12588" />
    <path
       id="path9756"
       style="color:#000000;fill:#ac9d93;stroke-width:1;-inkscape-stroke:none"
       d="M 3.6101158,0.34902204 C 3.2395047,0.35201479 2.8693338,0.41644663 2.519743,0.5422919 1.8212299,0.79374169 1.2224163,1.2805396 0.8009849,1.885879 0.3799055,2.4907129 0.1346387,3.2069183 0.0568443,3.9348494 -0.09865791,5.3899003 0.4027677,6.8387496 1.1585858,8.0694807 2.3412699,9.9952974 4.2283081,11.571123 6.3494026,12.351165 8.4704941,11.571123 10.35873,9.9952974 11.541414,8.0694807 12.297232,6.8387496 12.798659,5.3899003 12.643156,3.9348494 12.565362,3.2069183 12.320095,2.4907129 11.899016,1.885879 11.477585,1.2805395 10.87877,0.79374169 10.180257,0.5422919 9.4810755,0.2906014 8.6995288,0.28424555 7.9964113,0.5247219 7.2932935,0.76519823 6.7692765,1.1005994 6.3706706,1.7277491 5.9720686,1.1005994 5.4067067,0.76519823 4.7035889,0.5247219 4.3520302,0.40448373 3.9807267,0.34602928 3.6101158,0.34902204 Z m 0.00206,0.26406657 c 0.3412231,-0.002622 0.6832571,0.051492 1.005627,0.16174722 C 5.2625429,0.99534618 5.9963717,1.5712488 6.3618824,2.1463283 6.72739,1.5712488 7.4359008,0.99534618 8.0806406,0.77483583 c 0.6447401,-0.22051033 1.3685659,-0.2152905 2.0096964,0.015503 0.641232,0.23082967 1.1995,0.68266077 1.591634,1.24591867 0.392487,0.5637638 0.623597,1.2380676 0.697115,1.9259806 0.147122,1.3766374 -0.327979,2.7727497 -1.062467,3.9687499 -1.150776,1.8738567 -2.9014218,3.504544 -4.9652889,4.26354 C 4.2874687,11.435532 2.5341535,9.8048447 1.3833783,7.930988 0.6488893,6.7349877 0.1737887,5.3388757 0.3209108,3.962238 0.3944285,3.2743251 0.6255391,2.6000212 1.0180259,2.0362574 1.4101606,1.4729994 1.9684282,1.0211685 2.60966,0.79033878 2.9302255,0.67494203 3.2709636,0.61570947 3.6121827,0.61308861 Z"
       sodipodi:nodetypes="ssssscssssscsssscssssscsssss" />
  </g>
</svg>
