<svg version="1.1" viewBox="0.0 0.0 800.0 600.0" fill="none" stroke="none" stroke-linecap="square" stroke-miterlimit="10" xmlns:xlink="http://www.w3.org/1999/xlink" xmlns="http://www.w3.org/2000/svg"><clipPath id="p.0"><path d="m0 0l800.0 0l0 600.0l-800.0 0l0 -600.0z" clip-rule="nonzero"/></clipPath><g clip-path="url(#p.0)"><path fill="#000000" fill-opacity="0.0" d="m0 0l800.0 0l0 600.0l-800.0 0z" fill-rule="evenodd"/><path fill="#ff0000" d="m220.24147 208.93701l0 0c0 -9.097488 6.6840057 -16.472443 14.929138 -16.472443l0 0c3.9594421 0 7.756729 1.7354889 10.556488 4.8246613c2.799759 3.0891876 4.372635 7.279007 4.372635 11.647781l0 0c0 9.097473 -6.6839905 16.472443 -14.929123 16.472443l0 0c-8.245132 0 -14.929138 -7.3749695 -14.929138 -16.472443z" fill-rule="evenodd"/><path stroke="#000000" stroke-width="1.0" stroke-linejoin="round" stroke-linecap="butt" d="m220.24147 208.93701l0 0c0 -9.097488 6.6840057 -16.472443 14.929138 -16.472443l0 0c3.9594421 0 7.756729 1.7354889 10.556488 4.8246613c2.799759 3.0891876 4.372635 7.279007 4.372635 11.647781l0 0c0 9.097473 -6.6839905 16.472443 -14.929123 16.472443l0 0c-8.245132 0 -14.929138 -7.3749695 -14.929138 -16.472443z" fill-rule="evenodd"/><path fill="#cfe2f3" d="m34.15223 91.14698l0 0c0 -9.097473 6.684002 -16.472443 14.929134 -16.472443l0 0c3.9594536 0 7.7567368 1.7354889 10.556492 4.824669c2.799755 3.08918 4.3726425 7.2790146 4.3726425 11.647774l0 0c0 9.097481 -6.684002 16.472443 -14.929134 16.472443l0 0c-8.245132 0 -14.929134 -7.374962 -14.929134 -16.472443z" fill-rule="evenodd"/><path stroke="#000000" stroke-width="1.0" stroke-linejoin="round" stroke-linecap="butt" d="m34.15223 91.14698l0 0c0 -9.097473 6.684002 -16.472443 14.929134 -16.472443l0 0c3.9594536 0 7.7567368 1.7354889 10.556492 4.824669c2.799755 3.08918 4.3726425 7.2790146 4.3726425 11.647774l0 0c0 9.097481 -6.684002 16.472443 -14.929134 16.472443l0 0c-8.245132 0 -14.929134 -7.374962 -14.929134 -16.472443z" fill-rule="evenodd"/><path fill="#cfe2f3" d="m292.37796 39.209972l0 0c0 -9.097477 6.6839905 -16.472439 14.929138 -16.472439l0 0c3.9594421 0 7.756714 1.7354832 10.556488 4.824665c2.7997437 3.089182 4.3726196 7.279011 4.3726196 11.647774l0 0c0 9.097481 -6.6839905 16.472443 -14.929108 16.472443l0 0c-8.245148 0 -14.929138 -7.374962 -14.929138 -16.472443z" fill-rule="evenodd"/><path stroke="#000000" stroke-width="1.0" stroke-linejoin="round" stroke-linecap="butt" d="m292.37796 39.209972l0 0c0 -9.097477 6.6839905 -16.472439 14.929138 -16.472439l0 0c3.9594421 0 7.756714 1.7354832 10.556488 4.824665c2.7997437 3.089182 4.3726196 7.279011 4.3726196 11.647774l0 0c0 9.097481 -6.6839905 16.472443 -14.929108 16.472443l0 0c-8.245148 0 -14.929138 -7.374962 -14.929138 -16.472443z" fill-rule="evenodd"/><path fill="#cfe2f3" d="m410.3596 105.09974l0 0c0 -9.097481 6.6839905 -16.472443 14.929138 -16.472443l0 0c3.9594421 0 7.756714 1.7354813 10.556488 4.824669c2.7997437 3.08918 4.3726196 7.279007 4.3726196 11.647774l0 0c0 9.097473 -6.6839905 16.472443 -14.929108 16.472443l0 0c-8.245148 0 -14.929138 -7.3749695 -14.929138 -16.472443z" fill-rule="evenodd"/><path stroke="#000000" stroke-width="1.0" stroke-linejoin="round" stroke-linecap="butt" d="m410.3596 105.09974l0 0c0 -9.097481 6.6839905 -16.472443 14.929138 -16.472443l0 0c3.9594421 0 7.756714 1.7354813 10.556488 4.824669c2.7997437 3.08918 4.3726196 7.279007 4.3726196 11.647774l0 0c0 9.097473 -6.6839905 16.472443 -14.929108 16.472443l0 0c-8.245148 0 -14.929138 -7.3749695 -14.929138 -16.472443z" fill-rule="evenodd"/><path fill="#cfe2f3" d="m82.52493 361.43307l0 0c0 -9.097473 6.6840057 -16.472443 14.929138 -16.472443l0 0c3.9594498 0 7.7567368 1.7354736 10.556488 4.8246765c2.799759 3.0891724 4.3726425 7.2789917 4.3726425 11.647766l0 0c0 9.097473 -6.683998 16.472443 -14.929131 16.472443l0 0c-8.245132 0 -14.929138 -7.3749695 -14.929138 -16.472443z" fill-rule="evenodd"/><path stroke="#000000" stroke-width="1.0" stroke-linejoin="round" stroke-linecap="butt" d="m82.52493 361.43307l0 0c0 -9.097473 6.6840057 -16.472443 14.929138 -16.472443l0 0c3.9594498 0 7.7567368 1.7354736 10.556488 4.8246765c2.799759 3.0891724 4.3726425 7.2789917 4.3726425 11.647766l0 0c0 9.097473 -6.683998 16.472443 -14.929131 16.472443l0 0c-8.245132 0 -14.929138 -7.3749695 -14.929138 -16.472443z" fill-rule="evenodd"/><path fill="#cfe2f3" d="m410.3596 256.937l0 0c0 -9.097488 6.6839905 -16.472443 14.929138 -16.472443l0 0c3.9594421 0 7.756714 1.7354889 10.556488 4.8246613c2.7997437 3.0891876 4.3726196 7.279007 4.3726196 11.647781l0 0c0 9.097473 -6.6839905 16.472443 -14.929108 16.472443l0 0c-8.245148 0 -14.929138 -7.3749695 -14.929138 -16.472443z" fill-rule="evenodd"/><path stroke="#000000" stroke-width="1.0" stroke-linejoin="round" stroke-linecap="butt" d="m410.3596 256.937l0 0c0 -9.097488 6.6839905 -16.472443 14.929138 -16.472443l0 0c3.9594421 0 7.756714 1.7354889 10.556488 4.8246613c2.7997437 3.0891876 4.3726196 7.279007 4.3726196 11.647781l0 0c0 9.097473 -6.6839905 16.472443 -14.929108 16.472443l0 0c-8.245148 0 -14.929138 -7.3749695 -14.929138 -16.472443z" fill-rule="evenodd"/><path fill="#cfe2f3" d="m322.2362 444.88977l0 0c0 -9.097473 6.684021 -16.472443 14.929138 -16.472443l0 0c3.9594727 0 7.7567444 1.7354736 10.556488 4.824646c2.7997742 3.089203 4.37265 7.279022 4.37265 11.647797l0 0c0 9.097473 -6.6839905 16.472443 -14.929138 16.472443l0 0c-8.245117 0 -14.929138 -7.3749695 -14.929138 -16.472443z" fill-rule="evenodd"/><path stroke="#000000" stroke-width="1.0" stroke-linejoin="round" stroke-linecap="butt" d="m322.2362 444.88977l0 0c0 -9.097473 6.684021 -16.472443 14.929138 -16.472443l0 0c3.9594727 0 7.7567444 1.7354736 10.556488 4.824646c2.7997742 3.089203 4.37265 7.279022 4.37265 11.647797l0 0c0 9.097473 -6.6839905 16.472443 -14.929138 16.472443l0 0c-8.245117 0 -14.929138 -7.3749695 -14.929138 -16.472443z" fill-rule="evenodd"/><path fill="#ff0000" d="m248.54855 221.4252c6.2204742 -14.808411 30.480316 0 0 19.039368c-30.480316 -19.039368 -6.2204742 -33.84778 0 -19.039368z" fill-rule="evenodd"/><path stroke="#000000" stroke-width="1.0" stroke-linejoin="round" stroke-linecap="butt" d="m248.54855 221.4252c6.2204742 -14.808411 30.480316 0 0 19.039368c-30.480316 -19.039368 -6.2204742 -33.84778 0 -19.039368z" fill-rule="evenodd"/><path fill="#ff0000" d="m206.7559 361.43307l0 0c0 -9.097473 6.6840057 -16.472443 14.929138 -16.472443l0 0c3.9594421 0 7.756729 1.7354736 10.556488 4.8246765c2.799759 3.0891724 4.372635 7.2789917 4.372635 11.647766l0 0c0 9.097473 -6.6839905 16.472443 -14.929123 16.472443l0 0c-8.245132 0 -14.929138 -7.3749695 -14.929138 -16.472443z" fill-rule="evenodd"/><path stroke="#000000" stroke-width="1.0" stroke-linejoin="round" stroke-linecap="butt" d="m206.7559 361.43307l0 0c0 -9.097473 6.6840057 -16.472443 14.929138 -16.472443l0 0c3.9594421 0 7.756729 1.7354736 10.556488 4.8246765c2.799759 3.0891724 4.372635 7.2789917 4.372635 11.647766l0 0c0 9.097473 -6.6839905 16.472443 -14.929123 16.472443l0 0c-8.245132 0 -14.929138 -7.3749695 -14.929138 -16.472443z" fill-rule="evenodd"/><path fill="#00ffff" d="m235.06299 373.92126c6.2204742 -14.808411 30.480316 0 0 19.039368c-30.480316 -19.039368 -6.2204742 -33.84778 0 -19.039368z" fill-rule="evenodd"/><path stroke="#000000" stroke-width="1.0" stroke-linejoin="round" stroke-linecap="butt" d="m235.06299 373.92126c6.2204742 -14.808411 30.480316 0 0 19.039368c-30.480316 -19.039368 -6.2204742 -33.84778 0 -19.039368z" fill-rule="evenodd"/><path fill="#ff0000" d="m112.3832 72.154854l0 0c0 -9.097477 6.683998 -16.472439 14.929131 -16.472439l0 0c3.9594574 0 7.7567444 1.7354851 10.556488 4.824665c2.799759 3.0891838 4.37265 7.2790146 4.37265 11.647774l0 0c0 9.097481 -6.6840057 16.472443 -14.929138 16.472443l0 0c-8.245132 0 -14.929131 -7.374962 -14.929131 -16.472443z" fill-rule="evenodd"/><path stroke="#000000" stroke-width="1.0" stroke-linejoin="round" stroke-linecap="butt" d="m112.3832 72.154854l0 0c0 -9.097477 6.683998 -16.472439 14.929131 -16.472439l0 0c3.9594574 0 7.7567444 1.7354851 10.556488 4.824665c2.799759 3.0891838 4.37265 7.2790146 4.37265 11.647774l0 0c0 9.097481 -6.6840057 16.472443 -14.929138 16.472443l0 0c-8.245132 0 -14.929131 -7.374962 -14.929131 -16.472443z" fill-rule="evenodd"/><path fill="#00ffff" d="m140.69029 84.64304c6.2204742 -14.808395 30.480316 0 0 19.039368c-30.480316 -19.039368 -6.2204742 -33.847763 0 -19.039368z" fill-rule="evenodd"/><path stroke="#000000" stroke-width="1.0" stroke-linejoin="round" stroke-linecap="butt" d="m140.69029 84.64304c6.2204742 -14.808395 30.480316 0 0 19.039368c-30.480316 -19.039368 -6.2204742 -33.847763 0 -19.039368z" fill-rule="evenodd"/><path fill="#000000" fill-opacity="0.0" d="m435.8452 245.28923l-200.66142 -52.818893" fill-rule="evenodd"/><path stroke="#000000" stroke-width="1.0" stroke-linejoin="round" stroke-linecap="butt" d="m435.8452 245.28923l-200.66142 -52.818893" fill-rule="evenodd"/><path fill="#000000" fill-opacity="0.0" d="m224.6141 197.28923l-97.29133 -141.6063" fill-rule="evenodd"/><path stroke="#000000" stroke-width="1.0" stroke-linejoin="round" stroke-linecap="butt" d="m224.6141 197.28923l-97.29133 -141.6063" fill-rule="evenodd"/><path fill="#000000" fill-opacity="0.0" d="m137.87401 60.519684l68.8819 300.9134" fill-rule="evenodd"/><path stroke="#000000" stroke-width="1.0" stroke-linejoin="round" stroke-linecap="butt" d="m137.87401 60.519684l68.8819 300.9134" fill-rule="evenodd"/><path fill="#000000" fill-opacity="0.0" d="m206.7559 361.43307l13.480316 -152.50394" fill-rule="evenodd"/><path stroke="#000000" stroke-width="1.0" stroke-linejoin="round" stroke-linecap="butt" d="m206.7559 361.43307l13.480316 -152.50394" fill-rule="evenodd"/><path fill="#000000" fill-opacity="0.0" d="m220.24147 208.93701l87.05513 -153.25984" fill-rule="evenodd"/><path stroke="#000000" stroke-width="1.0" stroke-linejoin="round" stroke-linecap="butt" d="m220.24147 208.93701l87.05513 -153.25984" fill-rule="evenodd"/><path fill="#000000" fill-opacity="0.0" d="m250.09973 208.93701l185.7323 -92.18898" fill-rule="evenodd"/><path stroke="#000000" stroke-width="1.0" stroke-linejoin="round" stroke-linecap="butt" d="m250.09973 208.93701l185.7323 -92.18898" fill-rule="evenodd"/><path fill="#000000" fill-opacity="0.0" d="m116.755844 60.50708l175.62206 -21.291336" fill-rule="evenodd"/><path stroke="#000000" stroke-width="1.0" stroke-linejoin="round" stroke-linecap="butt" d="m116.755844 60.50708l175.62206 -21.291336" fill-rule="evenodd"/><path fill="#000000" fill-opacity="0.0" d="m224.6141 197.28923l-164.97638 -94.48819" fill-rule="evenodd"/><path stroke="#000000" stroke-width="1.0" stroke-linejoin="round" stroke-linecap="butt" d="m224.6141 197.28923l-164.97638 -94.48819" fill-rule="evenodd"/><path fill="#000000" fill-opacity="0.0" d="m140.69029 84.64304l-76.69292 6.519684" fill-rule="evenodd"/><path stroke="#000000" stroke-width="1.0" stroke-linejoin="round" stroke-linecap="butt" d="m140.69029 84.64304l-76.69292 6.519684" fill-rule="evenodd"/><path fill="#000000" fill-opacity="0.0" d="m211.12854 349.7853l-103.1181 0" fill-rule="evenodd"/><path stroke="#000000" stroke-width="1.0" stroke-linejoin="round" stroke-linecap="butt" d="m211.12854 349.7853l-103.1181 0" fill-rule="evenodd"/><path fill="#000000" fill-opacity="0.0" d="m108.01056 349.7853l6.2362213 -271.55908" fill-rule="evenodd"/><path stroke="#000000" stroke-width="1.0" stroke-linejoin="round" stroke-linecap="butt" d="m108.01056 349.7853l6.2362213 -271.55908" fill-rule="evenodd"/><path fill="#000000" fill-opacity="0.0" d="m97.45407 377.90552l122.80315 -168.97638" fill-rule="evenodd"/><path stroke="#000000" stroke-width="1.0" stroke-linejoin="round" stroke-linecap="butt" d="m97.45407 377.90552l122.80315 -168.97638" fill-rule="evenodd"/><path fill="#000000" fill-opacity="0.0" d="m435.8452 245.28923l-203.59056 104.50395" fill-rule="evenodd"/><path stroke="#000000" stroke-width="1.0" stroke-linejoin="round" stroke-linecap="butt" d="m435.8452 245.28923l-203.59056 104.50395" fill-rule="evenodd"/><path fill="#000000" fill-opacity="0.0" d="m347.72183 433.24197l-115.49605 -83.46454" fill-rule="evenodd"/><path stroke="#000000" stroke-width="1.0" stroke-linejoin="round" stroke-linecap="butt" d="m347.72183 433.24197l-115.49605 -83.46454" fill-rule="evenodd"/><path fill="#000000" fill-opacity="0.0" d="m414.7322 93.451965l-287.43304 -37.763783" fill-rule="evenodd"/><path stroke="#000000" stroke-width="1.0" stroke-linejoin="round" stroke-linecap="butt" d="m414.7322 93.451965l-287.43304 -37.763783" fill-rule="evenodd"/><path fill="#cfe2f3" d="m479.17584 170.9895l0 0c0 -9.097473 6.684021 -16.472443 14.929138 -16.472443l0 0c3.9594727 0 7.7567444 1.7354889 10.556488 4.8246613c2.7997742 3.0891876 4.37265 7.279022 4.37265 11.647781l0 0c0 9.097473 -6.6839905 16.472443 -14.929138 16.472443l0 0c-8.245117 0 -14.929138 -7.3749695 -14.929138 -16.472443z" fill-rule="evenodd"/><path stroke="#ffff00" stroke-width="1.0" stroke-linejoin="round" stroke-linecap="butt" d="m479.17584 170.9895l0 0c0 -9.097473 6.684021 -16.472443 14.929138 -16.472443l0 0c3.9594727 0 7.7567444 1.7354889 10.556488 4.8246613c2.7997742 3.0891876 4.37265 7.279022 4.37265 11.647781l0 0c0 9.097473 -6.6839905 16.472443 -14.929138 16.472443l0 0c-8.245117 0 -14.929138 -7.3749695 -14.929138 -16.472443z" fill-rule="evenodd"/><path fill="#000000" fill-opacity="0.0" d="m479.17584 170.9895l-38.960632 -65.88976" fill-rule="evenodd"/><path stroke="#000000" stroke-width="1.0" stroke-linejoin="round" stroke-linecap="butt" d="m479.17584 170.9895l-38.960632 -65.88976" fill-rule="evenodd"/><path fill="#cfe2f3" d="m612.4724 328.4882l0 0c0 -9.097473 6.684021 -16.472443 14.929138 -16.472443l0 0c3.9594727 0 7.756775 1.7354736 10.556519 4.8246765c2.7997437 3.0891724 4.3726196 7.2789917 4.3726196 11.647766l0 0c0 9.097473 -6.68396 16.472443 -14.929138 16.472443l0 0c-8.245117 0 -14.929138 -7.3749695 -14.929138 -16.472443z" fill-rule="evenodd"/><path stroke="#000000" stroke-width="1.0" stroke-linejoin="round" stroke-linecap="butt" d="m612.4724 328.4882l0 0c0 -9.097473 6.684021 -16.472443 14.929138 -16.472443l0 0c3.9594727 0 7.756775 1.7354736 10.556519 4.8246765c2.7997437 3.0891724 4.3726196 7.2789917 4.3726196 11.647766l0 0c0 9.097473 -6.68396 16.472443 -14.929138 16.472443l0 0c-8.245117 0 -14.929138 -7.3749695 -14.929138 -16.472443z" fill-rule="evenodd"/><path fill="#ff0000" d="m718.91864 449.7139l0 0c0 -9.097473 6.684021 -16.472443 14.929138 -16.472443l0 0c3.9594727 0 7.756714 1.7355042 10.5564575 4.8246765c2.7998047 3.0891724 4.3726807 7.279022 4.3726807 11.647766l0 0c0 9.097504 -6.684021 16.472443 -14.929138 16.472443l0 0c-8.245117 0 -14.929138 -7.374939 -14.929138 -16.472443z" fill-rule="evenodd"/><path stroke="#000000" stroke-width="1.0" stroke-linejoin="round" stroke-linecap="butt" d="m718.91864 449.7139l0 0c0 -9.097473 6.684021 -16.472443 14.929138 -16.472443l0 0c3.9594727 0 7.756714 1.7355042 10.5564575 4.8246765c2.7998047 3.0891724 4.3726807 7.279022 4.3726807 11.647766l0 0c0 9.097504 -6.684021 16.472443 -14.929138 16.472443l0 0c-8.245117 0 -14.929138 -7.374939 -14.929138 -16.472443z" fill-rule="evenodd"/><path fill="#ff0000" d="m747.2257 462.2021c6.220459 -14.80838 30.480347 0 0 19.039368c-30.480286 -19.039368 -6.220459 -33.847748 0 -19.039368z" fill-rule="evenodd"/><path stroke="#000000" stroke-width="1.0" stroke-linejoin="round" stroke-linecap="butt" d="m747.2257 462.2021c6.220459 -14.80838 30.480347 0 0 19.039368c-30.480286 -19.039368 -6.220459 -33.847748 0 -19.039368z" fill-rule="evenodd"/><path fill="#000000" fill-opacity="0.0" d="m612.4724 328.4882l121.385864 104.75589" fill-rule="evenodd"/><path stroke="#000000" stroke-width="1.0" stroke-linejoin="round" stroke-linecap="butt" d="m612.4724 328.4882l121.385864 104.75589" fill-rule="evenodd"/></g></svg>